<?xml version="1.0" encoding="utf-8"?>
<!-- Generator: Adobe Illustrator 25.4.1, SVG Export Plug-In . SVG Version: 6.00 Build 0)  -->
<svg version="1.1" xmlns="http://www.w3.org/2000/svg" xmlns:xlink="http://www.w3.org/1999/xlink" x="0px" y="0px"
	 viewBox="0 0 539.34 539.39" style="enable-background:new 0 0 539.34 539.39;" xml:space="preserve">
<style type="text/css">
	.st0{display:none;}
	.st1{display:inline;fill:#FFFFFF;}
	.st2{fill:#878787;}
	.st3{fill:#CCCCCB;}
	.st4{fill:#444545;}
	.st5{fill:#151515;}
	.st6{fill:#353535;}
	.st7{fill:#DDDDDD;}
	.st8{fill:#E5E5E5;}
	.st9{fill:#40403F;}
	.st10{fill:#AAA49A;}
	.st11{fill:#FFFFFF;}
	.st12{fill:#848484;}
	.st13{fill:#413A3E;}
	.st14{fill:#2D2D2D;}
	.st15{fill:#C2C1C0;}
	.st16{fill:#595A5A;}
</style>
<g id="Layer_1" class="st0">
	<rect x="0" class="st1" width="539.34" height="539.34"/>
	<rect x="0" class="st1" width="269.67" height="269.67"/>
	<rect x="269.67" y="0.04" class="st1" width="269.67" height="269.67"/>
	<rect x="0" y="269.72" class="st1" width="269.67" height="269.67"/>
	<rect x="269.67" y="269.72" class="st1" width="269.67" height="269.67"/>
</g>
<g id="Layer_2">
	<rect x="0" class="st2" width="134.84" height="134.84"/>
	<rect x="134.84" class="st3" width="134.84" height="134.84"/>
	<rect y="134.84" class="st4" width="134.84" height="134.84"/>
	<rect x="134.84" y="134.84" class="st5" width="134.84" height="134.84"/>
	<rect x="269.67" class="st6" width="134.84" height="134.84"/>
	<rect x="404.51" class="st7" width="134.84" height="134.84"/>
	<rect x="269.67" y="134.84" class="st8" width="134.84" height="134.84"/>
	<rect x="404.51" y="134.84" class="st9" width="134.84" height="134.84"/>
	<rect x="269.67" y="269.72" class="st10" width="134.84" height="134.84"/>
	<rect x="404.51" y="269.72" class="st8" width="134.84" height="134.84"/>
	<rect x="269.67" y="404.55" class="st11" width="134.84" height="134.84"/>
	<rect x="404.51" y="404.55" class="st12" width="134.84" height="134.84"/>
	<rect x="0" y="269.72" class="st13" width="134.84" height="134.84"/>
	<rect x="134.84" y="269.72" class="st14" width="134.84" height="134.84"/>
	<rect x="0" y="404.55" class="st15" width="134.84" height="134.84"/>
	<rect x="134.84" y="404.55" class="st16" width="134.84" height="134.84"/>
</g>
</svg>
